<?xml version="1.0" encoding="utf-8"?>
<!-- Generator: Adobe Illustrator 27.5.0, SVG Export Plug-In . SVG Version: 6.00 Build 0)  -->
<svg version="1.1" id="Layer_1" xmlns="http://www.w3.org/2000/svg" xmlns:xlink="http://www.w3.org/1999/xlink" x="0px" y="0px"
	 viewBox="0 0 1401.65 411.7" style="enable-background:new 0 0 1401.65 411.7;" xml:space="preserve">
<g>
	<polygon points="18.05,296.75 80.23,296.75 80.23,193.48 158.04,193.48 158.04,145.12 80.23,145.12 80.23,91.31 184.22,91.31 
		184.22,27.68 18.05,27.68 	"/>
	<rect x="216.95" y="27.68" width="62.18" height="269.07"/>
	<path d="M365.3,20.83c-5.82-5.41-13.22-8.12-22.21-8.12c-9.19,0-16.69,2.71-22.51,8.12c-5.82,5.41-8.73,12.2-8.73,20.37
		c0,7.96,2.91,14.65,8.73,20.06c5.82,5.41,13.32,8.12,22.51,8.12c8.98,0,16.39-2.7,22.21-8.12c5.82-5.41,8.73-12.1,8.73-20.06
		C374.03,33.03,371.12,26.24,365.3,20.83z"/>
	<rect x="311.85" y="93.85" width="62.18" height="202.9"/>
	<path d="M576.92,103.67c-13.58-8.48-28.73-12.73-45.45-12.73c-14.31,0-26.79,2.91-37.45,8.73c-10.67,5.82-19.03,13.45-25.09,22.91
		V93.85h-62.18v299.62h62.18V268.39c6.06,9.22,14.48,16.73,25.27,22.54c10.78,5.82,23.21,8.73,37.27,8.73
		c16.73,0,31.87-4.3,45.45-12.91c13.57-8.6,24.3-20.85,32.18-36.73c7.87-15.87,11.82-34.24,11.82-55.09
		c0-20.85-3.94-39.15-11.82-54.91C601.22,124.28,590.5,112.16,576.92,103.67z M544.56,231.84c-8.73,9.09-19.27,13.64-31.63,13.64
		s-22.85-4.48-31.45-13.45c-8.61-8.97-12.91-21.21-12.91-36.73c0-15.51,4.3-27.75,12.91-36.72c8.6-8.97,19.09-13.45,31.45-13.45
		c12.6,0,23.21,4.43,31.82,13.27c8.6,8.85,12.91,21.03,12.91,36.54C557.65,210.45,553.29,222.75,544.56,231.84z"/>
	<path d="M728.16,240.03c-2.91-2.67-4.36-7.03-4.36-13.09v-81.45h40.72V93.85H723.8V44.4h-62.18v49.45h-24.72v51.63h24.72v80.72
		c0,24.97,6.3,42.97,18.91,54c12.6,11.03,30.18,16.54,52.72,16.54h31.63v-52.72H742.7C735.92,244.03,731.07,242.7,728.16,240.03z"/>
	<path d="M936.6,204.03c0,13.58-3.52,24.12-10.54,31.63c-7.03,7.52-16.61,11.27-28.72,11.27c-11.88,0-21.33-3.75-28.36-11.27
		c-7.03-7.51-10.54-18.06-10.54-31.63V93.85h-61.81v118.54c0,17.7,3.27,33.09,9.82,46.18c6.54,13.09,15.75,23.09,27.63,30
		c11.88,6.91,25.57,10.36,41.09,10.36c13.09,0,25.03-2.73,35.82-8.18c10.78-5.45,19.33-12.66,25.63-21.63v27.63h62.18V93.85H936.6
		V204.03z"/>
	<path d="M1092.68,127.67V93.85h-62.18v202.9h62.18v-94.18c0-16.73,3.88-28.42,11.64-35.09c7.75-6.66,19.39-10,34.91-10h17.09V91.67
		c-13.33,0-25.45,3.22-36.36,9.64C1109.04,107.73,1099.95,116.52,1092.68,127.67z"/>
	<path d="M1330.88,103.31c-15.27-8.24-32.72-12.36-52.36-12.36c-20.12,0-37.94,4.24-53.45,12.73
		c-15.52,8.49-27.58,20.61-36.18,36.36c-8.61,15.76-12.91,34.18-12.91,55.27s4.36,39.51,13.09,55.27
		c8.73,15.76,20.84,27.88,36.36,36.36c15.51,8.49,33.21,12.73,53.09,12.73c16.48,0,31.39-3.03,44.72-9.09
		c13.33-6.06,24.42-14.42,33.27-25.09c8.85-10.66,14.96-22.66,18.36-36h-66.18c-6.06,13.09-16.85,19.63-32.36,19.63
		c-10.42,0-19.21-3.33-26.36-10c-7.15-6.66-11.22-16.3-12.18-28.91h140.72c0.73-6.3,1.09-12.36,1.09-18.18
		c0-20.36-4.31-38.18-12.91-53.45C1358.08,123.31,1346.15,111.55,1330.88,103.31z M1238.15,175.67
		c1.69-11.15,6.12-19.75,13.27-25.82c7.15-6.06,15.94-9.09,26.36-9.09c10.91,0,20,3.15,27.27,9.45
		c7.27,6.31,10.91,14.79,10.91,25.45H1238.15z"/>
</g>
</svg>
